{"asset": {"version": "2.0", "generator": "vault room planner fetch-polyhaven.py"}, "scene": 0, "scenes": [{"nodes": [0]}], "nodes": [{"mesh": 0, "name": "rug_poly_wool_herringbone"}], "meshes": [{"primitives": [{"attributes": {"POSITION": 0, "NORMAL": 1, "TEXCOORD_0": 2}, "indices": 3, "material": 0}]}], "materials": [{"name": "wool", "pbrMetallicRoughness": {"baseColorTexture": {"index": 0}, "metallicRoughnessTexture": {"index": 1}, "metallicFactor": 1, "roughnessFactor": 1}, "normalTexture": {"index": 2}}], "textures": [{"sampler": 0, "source": 0}, {"sampler": 0, "source": 1}, {"sampler": 0, "source": 2}], "samplers": [{"magFilter": 9729, "minFilter": 9987, "wrapS": 10497, "wrapT": 10497}], "images": [{"uri": "textures/poly_wool_herringbone_diff_1k.jpg"}, {"uri": "textures/poly_wool_herringbone_rough_1k.jpg"}, {"uri": "textures/poly_wool_herringbone_nor_gl_1k.jpg"}], "accessors": [{"bufferView": 0, "componentType": 5126, "count": 24, "type": "VEC3", "min": [-1.2, 0, -0.85], "max": [1.2, 0.015, 0.85]}, {"bufferView": 1, "componentType": 5126, "count": 24, "type": "VEC3"}, {"bufferView": 2, "componentType": 5126, "count": 24, "type": "VEC2"}, {"bufferView": 3, "componentType": 5123, "count": 36, "type": "SCALAR"}], "bufferViews": [{"buffer": 0, "byteOffset": 0, "byteLength": 288, "target": 34962}, {"buffer": 0, "byteOffset": 288, "byteLength": 288, "target": 34962}, {"buffer": 0, "byteOffset": 576, "byteLength": 192, "target": 34962}, {"buffer": 0, "byteOffset": 768, "byteLength": 72, "target": 34963}], "buffers": [{"uri": "rug_poly_wool_herringbone.bin", "byteLength": 840}]}